<?xml version="1.0" encoding="UTF-8" standalone="no"?>
<!DOCTYPE svg PUBLIC "-//W3C//DTD SVG 1.1//EN"
 "http://www.w3.org/Graphics/SVG/1.1/DTD/svg11.dtd">
<!-- Generated by graphviz version 2.40.1 (0)
 -->
<!-- Title: %3 Pages: 1 -->
<svg width="778pt" height="511pt"
 viewBox="0.00 0.00 778.16 511.00" xmlns="http://www.w3.org/2000/svg" xmlns:xlink="http://www.w3.org/1999/xlink">
<g id="graph0" class="graph" transform="scale(1 1) rotate(0) translate(4 507)">
<title>%3</title>
<polygon fill="#ffffff" stroke="transparent" points="-4,4 -4,-507 774.1583,-507 774.1583,4 -4,4"/>
<!-- student -->
<g id="node1" class="node">
<title>student</title>
<polygon fill="none" stroke="#000000" points="416,-212.5 416,-350.5 576,-350.5 576,-212.5 416,-212.5"/>
<text text-anchor="middle" x="451.5" y="-277.8" font-family="Times,serif" font-size="14.00" fill="#000000">student</text>
<polyline fill="none" stroke="#000000" points="487,-212.5 487,-350.5 "/>
<text text-anchor="middle" x="531.5" y="-335.3" font-family="Times,serif" font-size="14.00" fill="#000000">id</text>
<polyline fill="none" stroke="#000000" points="487,-327.5 576,-327.5 "/>
<text text-anchor="middle" x="531.5" y="-312.3" font-family="Times,serif" font-size="14.00" fill="#000000">student id</text>
<polyline fill="none" stroke="#000000" points="487,-304.5 576,-304.5 "/>
<text text-anchor="middle" x="531.5" y="-289.3" font-family="Times,serif" font-size="14.00" fill="#000000">password</text>
<polyline fill="none" stroke="#000000" points="487,-281.5 576,-281.5 "/>
<text text-anchor="middle" x="531.5" y="-266.3" font-family="Times,serif" font-size="14.00" fill="#000000">name</text>
<polyline fill="none" stroke="#000000" points="487,-258.5 576,-258.5 "/>
<text text-anchor="middle" x="531.5" y="-243.3" font-family="Times,serif" font-size="14.00" fill="#000000">major id</text>
<polyline fill="none" stroke="#000000" points="487,-235.5 576,-235.5 "/>
<text text-anchor="middle" x="531.5" y="-220.3" font-family="Times,serif" font-size="14.00" fill="#000000">grade</text>
</g>
<!-- major -->
<g id="node7" class="node">
<title>major</title>
<polygon fill="none" stroke="#000000" points="395,-95 395,-164 539,-164 539,-95 395,-95"/>
<text text-anchor="middle" x="424" y="-125.8" font-family="Times,serif" font-size="14.00" fill="#000000">major</text>
<polyline fill="none" stroke="#000000" points="453,-95 453,-164 "/>
<text text-anchor="middle" x="496" y="-148.8" font-family="Times,serif" font-size="14.00" fill="#000000">id</text>
<polyline fill="none" stroke="#000000" points="453,-141 539,-141 "/>
<text text-anchor="middle" x="496" y="-125.8" font-family="Times,serif" font-size="14.00" fill="#000000">name</text>
<polyline fill="none" stroke="#000000" points="453,-118 539,-118 "/>
<text text-anchor="middle" x="496" y="-102.8" font-family="Times,serif" font-size="14.00" fill="#000000">college id</text>
</g>
<!-- student&#45;&gt;major -->
<g id="edge1" class="edge">
<title>student:major_id&#45;&gt;major:id</title>
<path fill="none" stroke="#000000" d="M576,-246.5C591.3333,-246.5 583.5854,-225.3256 576,-212 557.5414,-179.5731 507.2569,-200.6597 497.6117,-174.7066"/>
<polygon fill="#000000" stroke="#000000" points="501.017,-173.8317 496,-164.5 494.1027,-174.9236 501.017,-173.8317"/>
</g>
<!-- laboratory -->
<g id="node2" class="node">
<title>laboratory</title>
<polygon fill="none" stroke="#000000" points="152.5,-83.5 152.5,-175.5 341.5,-175.5 341.5,-83.5 152.5,-83.5"/>
<text text-anchor="middle" x="198" y="-125.8" font-family="Times,serif" font-size="14.00" fill="#000000">laboratory</text>
<polyline fill="none" stroke="#000000" points="243.5,-83.5 243.5,-175.5 "/>
<text text-anchor="middle" x="292.5" y="-160.3" font-family="Times,serif" font-size="14.00" fill="#000000">id</text>
<polyline fill="none" stroke="#000000" points="243.5,-152.5 341.5,-152.5 "/>
<text text-anchor="middle" x="292.5" y="-137.3" font-family="Times,serif" font-size="14.00" fill="#000000">college id</text>
<polyline fill="none" stroke="#000000" points="243.5,-129.5 341.5,-129.5 "/>
<text text-anchor="middle" x="292.5" y="-114.3" font-family="Times,serif" font-size="14.00" fill="#000000">name</text>
<polyline fill="none" stroke="#000000" points="243.5,-106.5 341.5,-106.5 "/>
<text text-anchor="middle" x="292.5" y="-91.3" font-family="Times,serif" font-size="14.00" fill="#000000">description</text>
</g>
<!-- college -->
<g id="node6" class="node">
<title>college</title>
<polygon fill="none" stroke="#000000" points="281,-.5 281,-46.5 405,-46.5 405,-.5 281,-.5"/>
<text text-anchor="middle" x="315" y="-19.8" font-family="Times,serif" font-size="14.00" fill="#000000">college</text>
<polyline fill="none" stroke="#000000" points="349,-.5 349,-46.5 "/>
<text text-anchor="middle" x="377" y="-31.3" font-family="Times,serif" font-size="14.00" fill="#000000">id</text>
<polyline fill="none" stroke="#000000" points="349,-23.5 405,-23.5 "/>
<text text-anchor="middle" x="377" y="-8.3" font-family="Times,serif" font-size="14.00" fill="#000000">name</text>
</g>
<!-- laboratory&#45;&gt;college -->
<g id="edge2" class="edge">
<title>laboratory:college_id&#45;&gt;college:id</title>
<path fill="none" stroke="#000000" d="M342,-141.5C383.657,-141.5 378.1809,-98.6435 377.1386,-56.579"/>
<polygon fill="#000000" stroke="#000000" points="380.6373,-56.4509 377,-46.5 373.638,-56.5472 380.6373,-56.4509"/>
</g>
<!-- job -->
<g id="node3" class="node">
<title>job</title>
<polygon fill="none" stroke="#000000" points="129.5,-224 129.5,-339 276.5,-339 276.5,-224 129.5,-224"/>
<text text-anchor="middle" x="148.5" y="-277.8" font-family="Times,serif" font-size="14.00" fill="#000000">job</text>
<polyline fill="none" stroke="#000000" points="167.5,-224 167.5,-339 "/>
<text text-anchor="middle" x="222" y="-323.8" font-family="Times,serif" font-size="14.00" fill="#000000">id</text>
<polyline fill="none" stroke="#000000" points="167.5,-316 276.5,-316 "/>
<text text-anchor="middle" x="222" y="-300.8" font-family="Times,serif" font-size="14.00" fill="#000000">laboratory id</text>
<polyline fill="none" stroke="#000000" points="167.5,-293 276.5,-293 "/>
<text text-anchor="middle" x="222" y="-277.8" font-family="Times,serif" font-size="14.00" fill="#000000">name</text>
<polyline fill="none" stroke="#000000" points="167.5,-270 276.5,-270 "/>
<text text-anchor="middle" x="222" y="-254.8" font-family="Times,serif" font-size="14.00" fill="#000000">num</text>
<polyline fill="none" stroke="#000000" points="167.5,-247 276.5,-247 "/>
<text text-anchor="middle" x="222" y="-231.8" font-family="Times,serif" font-size="14.00" fill="#000000">description</text>
</g>
<!-- job&#45;&gt;laboratory -->
<g id="edge3" class="edge">
<title>job:laboratory_id&#45;&gt;laboratory:id</title>
<path fill="none" stroke="#000000" d="M277,-304.5C287.3161,-304.5 283.448,-222.1987 285,-212 286.8934,-199.558 290.5113,-194.5494 292.1527,-185.6258"/>
<polygon fill="#000000" stroke="#000000" points="295.6539,-185.757 293,-175.5 288.6783,-185.1733 295.6539,-185.757"/>
</g>
<!-- skill -->
<g id="node4" class="node">
<title>skill</title>
<polygon fill="none" stroke="#000000" points="294.5,-258.5 294.5,-304.5 397.5,-304.5 397.5,-258.5 294.5,-258.5"/>
<text text-anchor="middle" x="318" y="-277.8" font-family="Times,serif" font-size="14.00" fill="#000000">skill</text>
<polyline fill="none" stroke="#000000" points="341.5,-258.5 341.5,-304.5 "/>
<text text-anchor="middle" x="369.5" y="-289.3" font-family="Times,serif" font-size="14.00" fill="#000000">id</text>
<polyline fill="none" stroke="#000000" points="341.5,-281.5 397.5,-281.5 "/>
<text text-anchor="middle" x="369.5" y="-266.3" font-family="Times,serif" font-size="14.00" fill="#000000">name</text>
</g>
<!-- award -->
<g id="node5" class="node">
<title>award</title>
<polygon fill="none" stroke="#000000" points="595,-410.5 595,-479.5 745,-479.5 745,-410.5 595,-410.5"/>
<text text-anchor="middle" x="625.5" y="-441.3" font-family="Times,serif" font-size="14.00" fill="#000000">award</text>
<polyline fill="none" stroke="#000000" points="656,-410.5 656,-479.5 "/>
<text text-anchor="middle" x="700.5" y="-464.3" font-family="Times,serif" font-size="14.00" fill="#000000">id</text>
<polyline fill="none" stroke="#000000" points="656,-456.5 745,-456.5 "/>
<text text-anchor="middle" x="700.5" y="-441.3" font-family="Times,serif" font-size="14.00" fill="#000000">student id</text>
<polyline fill="none" stroke="#000000" points="656,-433.5 745,-433.5 "/>
<text text-anchor="middle" x="700.5" y="-418.3" font-family="Times,serif" font-size="14.00" fill="#000000">name</text>
</g>
<!-- award&#45;&gt;student -->
<g id="edge4" class="edge">
<title>award:student_id&#45;&gt;student:id</title>
<path fill="none" stroke="#000000" d="M745,-445C830.2593,-445 676.7335,-347.1848 586.1727,-339.9251"/>
<polygon fill="#000000" stroke="#000000" points="586.1374,-336.4206 576,-339.5 585.8451,-343.4145 586.1374,-336.4206"/>
</g>
<!-- major&#45;&gt;college -->
<g id="edge5" class="edge">
<title>major:college_id&#45;&gt;college:id</title>
<path fill="none" stroke="#000000" d="M496,-94.5C496,-49.6879 459.0082,-37.2035 415.0743,-35.6694"/>
<polygon fill="#000000" stroke="#000000" points="415.0575,-32.1687 405,-35.5 414.9397,-39.1677 415.0575,-32.1687"/>
</g>
<!-- student_skill -->
<g id="node8" class="node">
<title>student_skill</title>
<polygon fill="none" stroke="#000000" points="381.5,-399 381.5,-491 576.5,-491 576.5,-399 381.5,-399"/>
<text text-anchor="middle" x="434.5" y="-441.3" font-family="Times,serif" font-size="14.00" fill="#000000">student skill</text>
<polyline fill="none" stroke="#000000" points="487.5,-399 487.5,-491 "/>
<text text-anchor="middle" x="532" y="-475.8" font-family="Times,serif" font-size="14.00" fill="#000000">id</text>
<polyline fill="none" stroke="#000000" points="487.5,-468 576.5,-468 "/>
<text text-anchor="middle" x="532" y="-452.8" font-family="Times,serif" font-size="14.00" fill="#000000">student id</text>
<polyline fill="none" stroke="#000000" points="487.5,-445 576.5,-445 "/>
<text text-anchor="middle" x="532" y="-429.8" font-family="Times,serif" font-size="14.00" fill="#000000">skill id</text>
<polyline fill="none" stroke="#000000" points="487.5,-422 576.5,-422 "/>
<text text-anchor="middle" x="532" y="-406.8" font-family="Times,serif" font-size="14.00" fill="#000000">level</text>
</g>
<!-- student_skill&#45;&gt;student -->
<g id="edge6" class="edge">
<title>student_skill:student_id&#45;&gt;student:id</title>
<path fill="none" stroke="#000000" d="M577,-457C590,-457 581.7806,-410.5891 577,-398.5 567.7587,-375.1308 541.1672,-378.0744 533.8711,-360.8052"/>
<polygon fill="#000000" stroke="#000000" points="537.2303,-359.7138 532,-350.5 530.3429,-360.9644 537.2303,-359.7138"/>
</g>
<!-- student_skill&#45;&gt;skill -->
<g id="edge7" class="edge">
<title>student_skill:skill_id&#45;&gt;skill:id</title>
<path fill="none" stroke="#000000" d="M577,-433C584.6667,-433 581.6347,-404.6072 577,-398.5 529.5755,-336.0081 459.1281,-409.6258 407,-351 400.6888,-343.9021 405.7685,-316.2191 403.79,-302.0133"/>
<polygon fill="#000000" stroke="#000000" points="406.5179,-299.8005 398,-293.5 400.7297,-303.7372 406.5179,-299.8005"/>
</g>
<!-- submit_record -->
<g id="node9" class="node">
<title>submit_record</title>
<polygon fill="none" stroke="#000000" points="156.5,-387.5 156.5,-502.5 363.5,-502.5 363.5,-387.5 156.5,-387.5"/>
<text text-anchor="middle" x="215.5" y="-441.3" font-family="Times,serif" font-size="14.00" fill="#000000">submit record</text>
<polyline fill="none" stroke="#000000" points="274.5,-387.5 274.5,-502.5 "/>
<text text-anchor="middle" x="319" y="-487.3" font-family="Times,serif" font-size="14.00" fill="#000000">id</text>
<polyline fill="none" stroke="#000000" points="274.5,-479.5 363.5,-479.5 "/>
<text text-anchor="middle" x="319" y="-464.3" font-family="Times,serif" font-size="14.00" fill="#000000">student id</text>
<polyline fill="none" stroke="#000000" points="274.5,-456.5 363.5,-456.5 "/>
<text text-anchor="middle" x="319" y="-441.3" font-family="Times,serif" font-size="14.00" fill="#000000">job id</text>
<polyline fill="none" stroke="#000000" points="274.5,-433.5 363.5,-433.5 "/>
<text text-anchor="middle" x="319" y="-418.3" font-family="Times,serif" font-size="14.00" fill="#000000">time</text>
<polyline fill="none" stroke="#000000" points="274.5,-410.5 363.5,-410.5 "/>
<text text-anchor="middle" x="319" y="-395.3" font-family="Times,serif" font-size="14.00" fill="#000000">status</text>
</g>
<!-- submit_record&#45;&gt;student -->
<g id="edge8" class="edge">
<title>submit_record:student_id&#45;&gt;student:id</title>
<path fill="none" stroke="#000000" d="M364,-468C382.1108,-468 360.9508,-400.521 373,-387 418.694,-335.7245 520.4919,-413.8995 531.1014,-360.6586"/>
<polygon fill="#000000" stroke="#000000" points="534.6051,-360.7695 532,-350.5 527.6323,-360.1527 534.6051,-360.7695"/>
</g>
<!-- submit_record&#45;&gt;job -->
<g id="edge9" class="edge">
<title>submit_record:job_id&#45;&gt;job:id</title>
<path fill="none" stroke="#000000" d="M364,-445C376.8889,-445 371.5307,-397.46 364,-387 327.3193,-336.0516 233.4751,-398.1802 222.962,-349.5129"/>
<polygon fill="#000000" stroke="#000000" points="226.4404,-349.1194 222,-339.5 219.4725,-349.7889 226.4404,-349.1194"/>
</g>
<!-- job_skill -->
<g id="node10" class="node">
<title>job_skill</title>
<polygon fill="none" stroke="#000000" points="0,-399 0,-491 138,-491 138,-399 0,-399"/>
<text text-anchor="middle" x="36.5" y="-441.3" font-family="Times,serif" font-size="14.00" fill="#000000">job skill</text>
<polyline fill="none" stroke="#000000" points="73,-399 73,-491 "/>
<text text-anchor="middle" x="105.5" y="-475.8" font-family="Times,serif" font-size="14.00" fill="#000000">id</text>
<polyline fill="none" stroke="#000000" points="73,-468 138,-468 "/>
<text text-anchor="middle" x="105.5" y="-452.8" font-family="Times,serif" font-size="14.00" fill="#000000">job id</text>
<polyline fill="none" stroke="#000000" points="73,-445 138,-445 "/>
<text text-anchor="middle" x="105.5" y="-429.8" font-family="Times,serif" font-size="14.00" fill="#000000">skill id</text>
<polyline fill="none" stroke="#000000" points="73,-422 138,-422 "/>
<text text-anchor="middle" x="105.5" y="-406.8" font-family="Times,serif" font-size="14.00" fill="#000000">level</text>
</g>
<!-- job_skill&#45;&gt;job -->
<g id="edge10" class="edge">
<title>job_skill:job_id&#45;&gt;job:id</title>
<path fill="none" stroke="#000000" d="M138,-457C153.6836,-457 138.5756,-400.229 147,-387 166.0412,-357.0992 211.407,-374.4335 220.4255,-349.649"/>
<polygon fill="#000000" stroke="#000000" points="223.9255,-349.9184 222,-339.5 217.0082,-348.8452 223.9255,-349.9184"/>
</g>
<!-- job_skill&#45;&gt;skill -->
<g id="edge11" class="edge">
<title>job_skill:skill_id&#45;&gt;skill:id</title>
<path fill="none" stroke="#000000" d="M138,-433C158.8321,-433 132.7329,-402.1798 147,-387 216.8998,-312.6285 359.7947,-403.535 369.4812,-314.6298"/>
<polygon fill="#000000" stroke="#000000" points="372.9839,-314.666 370,-304.5 365.993,-314.3079 372.9839,-314.666"/>
</g>
</g>
</svg>
