<?xml version="1.0" encoding="UTF-8" standalone="no"?>
<!DOCTYPE svg PUBLIC "-//W3C//DTD SVG 1.1//EN"
 "http://www.w3.org/Graphics/SVG/1.1/DTD/svg11.dtd">
<!-- Generated by graphviz version 2.40.1 (0)
 -->
<!-- Title: %3 Pages: 1 -->
<svg width="769pt" height="534pt"
 viewBox="0.00 0.00 768.98 534.00" xmlns="http://www.w3.org/2000/svg" xmlns:xlink="http://www.w3.org/1999/xlink">
<g id="graph0" class="graph" transform="scale(1 1) rotate(0) translate(4 530)">
<title>%3</title>
<polygon fill="#ffffff" stroke="transparent" points="-4,4 -4,-530 764.9794,-530 764.9794,4 -4,4"/>
<!-- student -->
<g id="node1" class="node">
<title>student</title>
<polygon fill="none" stroke="#000000" points="215,-212.5 215,-373.5 375,-373.5 375,-212.5 215,-212.5"/>
<text text-anchor="middle" x="250.5" y="-289.3" font-family="Times,serif" font-size="14.00" fill="#000000">student</text>
<polyline fill="none" stroke="#000000" points="286,-212.5 286,-373.5 "/>
<text text-anchor="middle" x="330.5" y="-358.3" font-family="Times,serif" font-size="14.00" fill="#000000">id</text>
<polyline fill="none" stroke="#000000" points="286,-350.5 375,-350.5 "/>
<text text-anchor="middle" x="330.5" y="-335.3" font-family="Times,serif" font-size="14.00" fill="#000000">student id</text>
<polyline fill="none" stroke="#000000" points="286,-327.5 375,-327.5 "/>
<text text-anchor="middle" x="330.5" y="-312.3" font-family="Times,serif" font-size="14.00" fill="#000000">password</text>
<polyline fill="none" stroke="#000000" points="286,-304.5 375,-304.5 "/>
<text text-anchor="middle" x="330.5" y="-289.3" font-family="Times,serif" font-size="14.00" fill="#000000">name</text>
<polyline fill="none" stroke="#000000" points="286,-281.5 375,-281.5 "/>
<text text-anchor="middle" x="330.5" y="-266.3" font-family="Times,serif" font-size="14.00" fill="#000000">major id</text>
<polyline fill="none" stroke="#000000" points="286,-258.5 375,-258.5 "/>
<text text-anchor="middle" x="330.5" y="-243.3" font-family="Times,serif" font-size="14.00" fill="#000000">college id</text>
<polyline fill="none" stroke="#000000" points="286,-235.5 375,-235.5 "/>
<text text-anchor="middle" x="330.5" y="-220.3" font-family="Times,serif" font-size="14.00" fill="#000000">grade</text>
</g>
<!-- college -->
<g id="node6" class="node">
<title>college</title>
<polygon fill="none" stroke="#000000" points="243,-.5 243,-46.5 367,-46.5 367,-.5 243,-.5"/>
<text text-anchor="middle" x="277" y="-19.8" font-family="Times,serif" font-size="14.00" fill="#000000">college</text>
<polyline fill="none" stroke="#000000" points="311,-.5 311,-46.5 "/>
<text text-anchor="middle" x="339" y="-31.3" font-family="Times,serif" font-size="14.00" fill="#000000">id</text>
<polyline fill="none" stroke="#000000" points="311,-23.5 367,-23.5 "/>
<text text-anchor="middle" x="339" y="-8.3" font-family="Times,serif" font-size="14.00" fill="#000000">name</text>
</g>
<!-- student&#45;&gt;college -->
<g id="edge2" class="edge">
<title>student:college_id&#45;&gt;college:id</title>
<path fill="none" stroke="#000000" d="M375,-247C390.5556,-247 384.5928,-224.2455 375,-212 333.7856,-159.3888 270.2144,-228.6112 229,-176 203.5104,-143.4619 204.8091,-116.5149 229,-83 256.7917,-44.4965 326.8263,-89.7402 337.5996,-56.6885"/>
<polygon fill="#000000" stroke="#000000" points="341.1057,-56.8835 339,-46.5 334.1709,-55.9302 341.1057,-56.8835"/>
</g>
<!-- major -->
<g id="node7" class="node">
<title>major</title>
<polygon fill="none" stroke="#000000" points="238,-95 238,-164 382,-164 382,-95 238,-95"/>
<text text-anchor="middle" x="267" y="-125.8" font-family="Times,serif" font-size="14.00" fill="#000000">major</text>
<polyline fill="none" stroke="#000000" points="296,-95 296,-164 "/>
<text text-anchor="middle" x="339" y="-148.8" font-family="Times,serif" font-size="14.00" fill="#000000">id</text>
<polyline fill="none" stroke="#000000" points="296,-141 382,-141 "/>
<text text-anchor="middle" x="339" y="-125.8" font-family="Times,serif" font-size="14.00" fill="#000000">name</text>
<polyline fill="none" stroke="#000000" points="296,-118 382,-118 "/>
<text text-anchor="middle" x="339" y="-102.8" font-family="Times,serif" font-size="14.00" fill="#000000">college id</text>
</g>
<!-- student&#45;&gt;major -->
<g id="edge1" class="edge">
<title>student:major_id&#45;&gt;major:id</title>
<path fill="none" stroke="#000000" d="M375,-270C400.7778,-270 383.2132,-236.4344 375,-212 367.8129,-190.6184 346.7606,-190.4162 340.6691,-174.4697"/>
<polygon fill="#000000" stroke="#000000" points="344.1032,-173.7848 339,-164.5 337.1993,-174.9407 344.1032,-173.7848"/>
</g>
<!-- laboratory -->
<g id="node2" class="node">
<title>laboratory</title>
<polygon fill="none" stroke="#000000" points="400.5,-83.5 400.5,-175.5 589.5,-175.5 589.5,-83.5 400.5,-83.5"/>
<text text-anchor="middle" x="446" y="-125.8" font-family="Times,serif" font-size="14.00" fill="#000000">laboratory</text>
<polyline fill="none" stroke="#000000" points="491.5,-83.5 491.5,-175.5 "/>
<text text-anchor="middle" x="540.5" y="-160.3" font-family="Times,serif" font-size="14.00" fill="#000000">id</text>
<polyline fill="none" stroke="#000000" points="491.5,-152.5 589.5,-152.5 "/>
<text text-anchor="middle" x="540.5" y="-137.3" font-family="Times,serif" font-size="14.00" fill="#000000">college id</text>
<polyline fill="none" stroke="#000000" points="491.5,-129.5 589.5,-129.5 "/>
<text text-anchor="middle" x="540.5" y="-114.3" font-family="Times,serif" font-size="14.00" fill="#000000">name</text>
<polyline fill="none" stroke="#000000" points="491.5,-106.5 589.5,-106.5 "/>
<text text-anchor="middle" x="540.5" y="-91.3" font-family="Times,serif" font-size="14.00" fill="#000000">description</text>
</g>
<!-- laboratory&#45;&gt;college -->
<g id="edge3" class="edge">
<title>laboratory:college_id&#45;&gt;college:id</title>
<path fill="none" stroke="#000000" d="M590,-141.5C616,-141.5 606.358,-103.2093 590,-83 560.0526,-46.0018 434.2775,-36.5976 377.1467,-35.5944"/>
<polygon fill="#000000" stroke="#000000" points="377.0322,-32.0933 367,-35.5 376.967,-39.093 377.0322,-32.0933"/>
</g>
<!-- job -->
<g id="node3" class="node">
<title>job</title>
<polygon fill="none" stroke="#000000" points="448.5,-235.5 448.5,-350.5 595.5,-350.5 595.5,-235.5 448.5,-235.5"/>
<text text-anchor="middle" x="467.5" y="-289.3" font-family="Times,serif" font-size="14.00" fill="#000000">job</text>
<polyline fill="none" stroke="#000000" points="486.5,-235.5 486.5,-350.5 "/>
<text text-anchor="middle" x="541" y="-335.3" font-family="Times,serif" font-size="14.00" fill="#000000">id</text>
<polyline fill="none" stroke="#000000" points="486.5,-327.5 595.5,-327.5 "/>
<text text-anchor="middle" x="541" y="-312.3" font-family="Times,serif" font-size="14.00" fill="#000000">laboratory id</text>
<polyline fill="none" stroke="#000000" points="486.5,-304.5 595.5,-304.5 "/>
<text text-anchor="middle" x="541" y="-289.3" font-family="Times,serif" font-size="14.00" fill="#000000">name</text>
<polyline fill="none" stroke="#000000" points="486.5,-281.5 595.5,-281.5 "/>
<text text-anchor="middle" x="541" y="-266.3" font-family="Times,serif" font-size="14.00" fill="#000000">num</text>
<polyline fill="none" stroke="#000000" points="486.5,-258.5 595.5,-258.5 "/>
<text text-anchor="middle" x="541" y="-243.3" font-family="Times,serif" font-size="14.00" fill="#000000">description</text>
</g>
<!-- job&#45;&gt;laboratory -->
<g id="edge4" class="edge">
<title>job:laboratory_id&#45;&gt;laboratory:id</title>
<path fill="none" stroke="#000000" d="M596,-316C632,-316 609.1208,-268.5238 596,-235 584.2593,-205.0022 549.5132,-209.8773 542.3146,-185.4625"/>
<polygon fill="#000000" stroke="#000000" points="545.7782,-184.9562 541,-175.5 538.8383,-185.872 545.7782,-184.9562"/>
</g>
<!-- skill -->
<g id="node4" class="node">
<title>skill</title>
<polygon fill="none" stroke="#000000" points="629.5,-270 629.5,-316 732.5,-316 732.5,-270 629.5,-270"/>
<text text-anchor="middle" x="653" y="-289.3" font-family="Times,serif" font-size="14.00" fill="#000000">skill</text>
<polyline fill="none" stroke="#000000" points="676.5,-270 676.5,-316 "/>
<text text-anchor="middle" x="704.5" y="-300.8" font-family="Times,serif" font-size="14.00" fill="#000000">id</text>
<polyline fill="none" stroke="#000000" points="676.5,-293 732.5,-293 "/>
<text text-anchor="middle" x="704.5" y="-277.8" font-family="Times,serif" font-size="14.00" fill="#000000">name</text>
</g>
<!-- award -->
<g id="node5" class="node">
<title>award</title>
<polygon fill="none" stroke="#000000" points="0,-433.5 0,-502.5 150,-502.5 150,-433.5 0,-433.5"/>
<text text-anchor="middle" x="30.5" y="-464.3" font-family="Times,serif" font-size="14.00" fill="#000000">award</text>
<polyline fill="none" stroke="#000000" points="61,-433.5 61,-502.5 "/>
<text text-anchor="middle" x="105.5" y="-487.3" font-family="Times,serif" font-size="14.00" fill="#000000">id</text>
<polyline fill="none" stroke="#000000" points="61,-479.5 150,-479.5 "/>
<text text-anchor="middle" x="105.5" y="-464.3" font-family="Times,serif" font-size="14.00" fill="#000000">student id</text>
<polyline fill="none" stroke="#000000" points="61,-456.5 150,-456.5 "/>
<text text-anchor="middle" x="105.5" y="-441.3" font-family="Times,serif" font-size="14.00" fill="#000000">name</text>
</g>
<!-- award&#45;&gt;student -->
<g id="edge5" class="edge">
<title>award:student_id&#45;&gt;student:id</title>
<path fill="none" stroke="#000000" d="M150,-468C163.0791,-468 150.9233,-419.4167 160,-410 211.2677,-356.8122 319.7151,-442.5022 330.1834,-384.1616"/>
<polygon fill="#000000" stroke="#000000" points="333.6877,-384.2483 331,-374 326.7101,-383.6875 333.6877,-384.2483"/>
</g>
<!-- major&#45;&gt;college -->
<g id="edge6" class="edge">
<title>major:college_id&#45;&gt;college:id</title>
<path fill="none" stroke="#000000" d="M339,-94.5C339,-77 339,-70.2666 339,-56.6358"/>
<polygon fill="#000000" stroke="#000000" points="342.5001,-56.5 339,-46.5 335.5001,-56.5 342.5001,-56.5"/>
</g>
<!-- student_skill -->
<g id="node8" class="node">
<title>student_skill</title>
<polygon fill="none" stroke="#000000" points="393.5,-422 393.5,-514 588.5,-514 588.5,-422 393.5,-422"/>
<text text-anchor="middle" x="446.5" y="-464.3" font-family="Times,serif" font-size="14.00" fill="#000000">student skill</text>
<polyline fill="none" stroke="#000000" points="499.5,-422 499.5,-514 "/>
<text text-anchor="middle" x="544" y="-498.8" font-family="Times,serif" font-size="14.00" fill="#000000">id</text>
<polyline fill="none" stroke="#000000" points="499.5,-491 588.5,-491 "/>
<text text-anchor="middle" x="544" y="-475.8" font-family="Times,serif" font-size="14.00" fill="#000000">student id</text>
<polyline fill="none" stroke="#000000" points="499.5,-468 588.5,-468 "/>
<text text-anchor="middle" x="544" y="-452.8" font-family="Times,serif" font-size="14.00" fill="#000000">skill id</text>
<polyline fill="none" stroke="#000000" points="499.5,-445 588.5,-445 "/>
<text text-anchor="middle" x="544" y="-429.8" font-family="Times,serif" font-size="14.00" fill="#000000">level</text>
</g>
<!-- student_skill&#45;&gt;student -->
<g id="edge7" class="edge">
<title>student_skill:student_id&#45;&gt;student:id</title>
<path fill="none" stroke="#000000" d="M589,-480C602,-480 596.8654,-431.8506 589,-421.5 582.3506,-412.7496 427.586,-372.3897 385.0933,-363.6656"/>
<polygon fill="#000000" stroke="#000000" points="385.4365,-360.175 375,-362 384.2967,-367.0816 385.4365,-360.175"/>
</g>
<!-- student_skill&#45;&gt;skill -->
<g id="edge8" class="edge">
<title>student_skill:skill_id&#45;&gt;skill:id</title>
<path fill="none" stroke="#000000" d="M589,-456C599.416,-456 592.81,-419.031 598,-410 627.6923,-358.333 696.3079,-376.7377 704.2468,-326.2594"/>
<polygon fill="#000000" stroke="#000000" points="707.7583,-326.2295 705,-316 700.7771,-325.7169 707.7583,-326.2295"/>
</g>
<!-- submit_record -->
<g id="node9" class="node">
<title>submit_record</title>
<polygon fill="none" stroke="#000000" points="168.5,-410.5 168.5,-525.5 375.5,-525.5 375.5,-410.5 168.5,-410.5"/>
<text text-anchor="middle" x="227.5" y="-464.3" font-family="Times,serif" font-size="14.00" fill="#000000">submit record</text>
<polyline fill="none" stroke="#000000" points="286.5,-410.5 286.5,-525.5 "/>
<text text-anchor="middle" x="331" y="-510.3" font-family="Times,serif" font-size="14.00" fill="#000000">id</text>
<polyline fill="none" stroke="#000000" points="286.5,-502.5 375.5,-502.5 "/>
<text text-anchor="middle" x="331" y="-487.3" font-family="Times,serif" font-size="14.00" fill="#000000">student id</text>
<polyline fill="none" stroke="#000000" points="286.5,-479.5 375.5,-479.5 "/>
<text text-anchor="middle" x="331" y="-464.3" font-family="Times,serif" font-size="14.00" fill="#000000">job id</text>
<polyline fill="none" stroke="#000000" points="286.5,-456.5 375.5,-456.5 "/>
<text text-anchor="middle" x="331" y="-441.3" font-family="Times,serif" font-size="14.00" fill="#000000">time</text>
<polyline fill="none" stroke="#000000" points="286.5,-433.5 375.5,-433.5 "/>
<text text-anchor="middle" x="331" y="-418.3" font-family="Times,serif" font-size="14.00" fill="#000000">status</text>
</g>
<!-- submit_record&#45;&gt;student -->
<g id="edge9" class="edge">
<title>submit_record:student_id&#45;&gt;student:id</title>
<path fill="none" stroke="#000000" d="M376,-491C385,-491 379.8987,-418.1117 376,-410 366.7252,-390.7027 341.5111,-396.4094 333.4874,-383.8399"/>
<polygon fill="#000000" stroke="#000000" points="336.8441,-382.8373 331,-374 330.0576,-384.5528 336.8441,-382.8373"/>
</g>
<!-- submit_record&#45;&gt;job -->
<g id="edge10" class="edge">
<title>submit_record:job_id&#45;&gt;job:id</title>
<path fill="none" stroke="#000000" d="M376,-468C389.0431,-468 376.7825,-420.129 385,-410 429.3297,-355.3584 530.0608,-418.0795 540.177,-361.1932"/>
<polygon fill="#000000" stroke="#000000" points="543.6837,-361.2493 541,-351 536.7064,-360.6858 543.6837,-361.2493"/>
</g>
<!-- job_skill -->
<g id="node10" class="node">
<title>job_skill</title>
<polygon fill="none" stroke="#000000" points="607,-422 607,-514 745,-514 745,-422 607,-422"/>
<text text-anchor="middle" x="643.5" y="-464.3" font-family="Times,serif" font-size="14.00" fill="#000000">job skill</text>
<polyline fill="none" stroke="#000000" points="680,-422 680,-514 "/>
<text text-anchor="middle" x="712.5" y="-498.8" font-family="Times,serif" font-size="14.00" fill="#000000">id</text>
<polyline fill="none" stroke="#000000" points="680,-491 745,-491 "/>
<text text-anchor="middle" x="712.5" y="-475.8" font-family="Times,serif" font-size="14.00" fill="#000000">job id</text>
<polyline fill="none" stroke="#000000" points="680,-468 745,-468 "/>
<text text-anchor="middle" x="712.5" y="-452.8" font-family="Times,serif" font-size="14.00" fill="#000000">skill id</text>
<polyline fill="none" stroke="#000000" points="680,-445 745,-445 "/>
<text text-anchor="middle" x="712.5" y="-429.8" font-family="Times,serif" font-size="14.00" fill="#000000">level</text>
</g>
<!-- job_skill&#45;&gt;job -->
<g id="edge11" class="edge">
<title>job_skill:job_id&#45;&gt;job:id</title>
<path fill="none" stroke="#000000" d="M745,-480C771,-480 759.734,-442.9221 745,-421.5 711.5559,-372.8748 667.688,-410.0991 621,-374 609.4215,-365.0475 612.1236,-349.2872 605.447,-342.3913"/>
<polygon fill="#000000" stroke="#000000" points="606.5945,-339.0846 596,-339 604.2294,-345.6729 606.5945,-339.0846"/>
</g>
<!-- job_skill&#45;&gt;skill -->
<g id="edge12" class="edge">
<title>job_skill:skill_id&#45;&gt;skill:id</title>
<path fill="none" stroke="#000000" d="M745,-456C760.3333,-456 747.7632,-436.5823 745,-421.5 736.6162,-375.7395 709.3606,-367.2435 705.4651,-326.2133"/>
<polygon fill="#000000" stroke="#000000" points="708.9514,-325.8304 705,-316 701.9587,-326.1489 708.9514,-325.8304"/>
</g>
</g>
</svg>
